<svg width="440" height="230" viewBox="0 0 540 230" fill="none" xmlns="http://www.w3.org/2000/svg">
<path d="M21.584 50.67C17.3853 50.67 13.812 49.9777 10.864 48.593C7.96067 47.1637 5.705 45.109 4.097 42.429C2.489 39.7043 1.59567 36.399 1.417 32.513C1.37233 30.6817 1.35 28.7163 1.35 26.617C1.35 24.5177 1.37233 22.5077 1.417 20.587C1.59567 16.7457 2.489 13.485 4.097 10.805C5.74967 8.08033 8.05 6.00333 10.998 4.574C13.946 3.14466 17.4747 2.43 21.584 2.43C24.5767 2.43 27.3013 2.80966 29.758 3.569C32.2147 4.32833 34.3363 5.42266 36.123 6.852C37.9097 8.28133 39.2943 9.95633 40.277 11.877C41.2597 13.7977 41.7957 15.9417 41.885 18.309C41.885 18.711 41.7287 19.046 41.416 19.314C41.148 19.582 40.813 19.716 40.411 19.716H32.773C32.237 19.716 31.8127 19.582 31.5 19.314C31.1873 19.046 30.9417 18.5993 30.763 17.974C30.093 15.3387 28.9763 13.5297 27.413 12.547C25.8497 11.5643 23.9067 11.073 21.584 11.073C18.8147 11.073 16.626 11.8323 15.018 13.351C13.41 14.8697 12.539 17.3933 12.405 20.922C12.271 24.5847 12.271 28.3367 12.405 32.178C12.539 35.7067 13.41 38.2303 15.018 39.749C16.626 41.2677 18.8147 42.027 21.584 42.027C23.9067 42.027 25.8497 41.5357 27.413 40.553C29.021 39.5257 30.1377 37.7167 30.763 35.126C30.9417 34.456 31.1873 34.0093 31.5 33.786C31.8127 33.518 32.237 33.384 32.773 33.384H40.411C40.813 33.384 41.148 33.518 41.416 33.786C41.7287 34.054 41.885 34.389 41.885 34.791C41.7957 37.1583 41.2597 39.3023 40.277 41.223C39.2943 43.1437 37.9097 44.8187 36.123 46.248C34.3363 47.6773 32.2147 48.7717 29.758 49.531C27.3013 50.2903 24.5767 50.67 21.584 50.67ZM51.0211 50C50.5297 50 50.1277 49.8437 49.8151 49.531C49.5024 49.2183 49.3461 48.8163 49.3461 48.325V4.105C49.3461 3.61366 49.5024 3.21166 49.8151 2.899C50.1277 2.58633 50.5297 2.43 51.0211 2.43H57.7211C58.1677 2.43 58.5474 2.58633 58.8601 2.899C59.1727 3.21166 59.3291 3.61366 59.3291 4.105V48.325C59.3291 48.8163 59.1727 49.2183 58.8601 49.531C58.5474 49.8437 58.1677 50 57.7211 50H51.0211ZM78.7182 50.67C76.3509 50.67 74.2292 50.2233 72.3532 49.33C70.4772 48.392 68.9809 47.1413 67.8642 45.578C66.7476 44.0147 66.1892 42.2727 66.1892 40.352C66.1892 37.1807 67.4622 34.6793 70.0082 32.848C72.5989 31.0167 75.9936 29.766 80.1922 29.096L88.9692 27.823V26.617C88.9692 24.875 88.5672 23.535 87.7632 22.597C86.9592 21.659 85.5522 21.19 83.5422 21.19C82.0682 21.19 80.8846 21.4803 79.9912 22.061C79.0979 22.6417 78.4056 23.401 77.9142 24.339C77.5569 24.9197 77.0432 25.21 76.3732 25.21H70.0082C69.5169 25.21 69.1372 25.076 68.8692 24.808C68.6012 24.4953 68.4896 24.138 68.5342 23.736C68.5342 22.9767 68.8246 22.0833 69.4052 21.056C69.9859 20.0287 70.8792 19.0237 72.0852 18.041C73.2912 17.0137 74.8322 16.165 76.7082 15.495C78.5842 14.825 80.8846 14.49 83.6092 14.49C86.4232 14.49 88.8352 14.825 90.8452 15.495C92.8552 16.165 94.4632 17.103 95.6692 18.309C96.8752 19.515 97.7686 20.922 98.3492 22.53C98.9299 24.0933 99.2202 25.7907 99.2202 27.622V48.325C99.2202 48.8163 99.0639 49.2183 98.7512 49.531C98.4386 49.8437 98.0366 50 97.5452 50H90.9792C90.5326 50 90.1529 49.8437 89.8402 49.531C89.5276 49.2183 89.3712 48.8163 89.3712 48.325V45.846C88.7906 46.6947 88.0089 47.4987 87.0262 48.258C86.0436 48.9727 84.8599 49.5533 83.4752 50C82.1352 50.4467 80.5496 50.67 78.7182 50.67ZM81.3982 43.702C82.8722 43.702 84.1899 43.3893 85.3512 42.764C86.5126 42.1387 87.4282 41.1783 88.0982 39.883C88.7682 38.5877 89.1032 36.9573 89.1032 34.992V33.853L82.8722 34.858C80.4602 35.26 78.6959 35.863 77.5792 36.667C76.4626 37.471 75.9042 38.4537 75.9042 39.615C75.9042 40.4637 76.1499 41.2007 76.6412 41.826C77.1772 42.4513 77.8696 42.9203 78.7182 43.233C79.5669 43.5457 80.4602 43.702 81.3982 43.702ZM109.61 50C109.164 50 108.784 49.8437 108.471 49.531C108.159 49.2183 108.002 48.8163 108.002 48.325V16.835C108.002 16.3437 108.159 15.9417 108.471 15.629C108.784 15.3163 109.164 15.16 109.61 15.16H116.31C116.802 15.16 117.204 15.3163 117.516 15.629C117.829 15.9417 117.985 16.3437 117.985 16.835V48.325C117.985 48.8163 117.829 49.2183 117.516 49.531C117.204 49.8437 116.802 50 116.31 50H109.61ZM109.409 9.8C108.963 9.8 108.583 9.64366 108.27 9.331C107.958 9.01833 107.801 8.61633 107.801 8.125V2.765C107.801 2.27366 107.958 1.87166 108.27 1.559C108.583 1.20167 108.963 1.023 109.409 1.023H116.444C116.936 1.023 117.338 1.20167 117.65 1.559C118.008 1.87166 118.186 2.27366 118.186 2.765V8.125C118.186 8.61633 118.008 9.01833 117.65 9.331C117.338 9.64366 116.936 9.8 116.444 9.8H109.409ZM130.367 50C129.921 50 129.541 49.8437 129.228 49.531C128.916 49.2183 128.759 48.8163 128.759 48.325V16.835C128.759 16.3437 128.916 15.9417 129.228 15.629C129.541 15.3163 129.921 15.16 130.367 15.16H136.598C137.045 15.16 137.425 15.3163 137.737 15.629C138.095 15.9417 138.273 16.3437 138.273 16.835V19.113C139.167 17.8623 140.395 16.7903 141.958 15.897C143.566 15.0037 145.465 14.5347 147.653 14.49C152.835 14.4007 156.386 16.366 158.306 20.386C159.334 18.644 160.808 17.237 162.728 16.165C164.694 15.0483 166.838 14.49 169.16 14.49C171.483 14.49 173.582 15.026 175.458 16.098C177.334 17.1253 178.808 18.7333 179.88 20.922C180.997 23.066 181.555 25.8353 181.555 29.23V48.325C181.555 48.8163 181.399 49.2183 181.086 49.531C180.774 49.8437 180.394 50 179.947 50H173.314C172.868 50 172.488 49.8437 172.175 49.531C171.863 49.2183 171.706 48.8163 171.706 48.325V29.766C171.706 27.9347 171.438 26.5053 170.902 25.478C170.366 24.406 169.652 23.6467 168.758 23.2C167.91 22.7533 166.949 22.53 165.877 22.53C164.939 22.53 164.024 22.7533 163.13 23.2C162.282 23.6467 161.567 24.406 160.986 25.478C160.45 26.5053 160.182 27.9347 160.182 29.766V48.325C160.182 48.8163 160.026 49.2183 159.713 49.531C159.401 49.8437 158.999 50 158.507 50H151.941C151.45 50 151.048 49.8437 150.735 49.531C150.423 49.2183 150.266 48.8163 150.266 48.325V29.766C150.266 27.9347 149.998 26.5053 149.462 25.478C148.926 24.406 148.212 23.6467 147.318 23.2C146.47 22.7533 145.532 22.53 144.504 22.53C143.566 22.53 142.651 22.7757 141.757 23.267C140.864 23.7137 140.127 24.4507 139.546 25.478C139.01 26.5053 138.742 27.9123 138.742 29.699V48.325C138.742 48.8163 138.586 49.2183 138.273 49.531C137.961 49.8437 137.581 50 137.134 50H130.367ZM208.214 50C207.722 50 207.32 49.8437 207.008 49.531C206.695 49.2183 206.539 48.8163 206.539 48.325V4.775C206.539 4.28366 206.695 3.88166 207.008 3.569C207.32 3.25633 207.722 3.1 208.214 3.1H228.113C231.82 3.1 234.857 3.636 237.225 4.708C239.592 5.78 241.334 7.29867 242.451 9.264C243.612 11.2293 244.193 13.5297 244.193 16.165C244.193 17.8177 243.88 19.2693 243.255 20.52C242.674 21.7707 241.937 22.798 241.044 23.602C240.195 24.406 239.369 25.009 238.565 25.411C240.307 26.215 241.825 27.555 243.121 29.431C244.461 31.2623 245.131 33.451 245.131 35.997C245.131 38.811 244.505 41.2677 243.255 43.367C242.004 45.4663 240.15 47.0967 237.694 48.258C235.237 49.4193 232.244 50 228.716 50H208.214ZM217.192 42.161H227.443C229.631 42.161 231.284 41.558 232.401 40.352C233.517 39.1013 234.076 37.6273 234.076 35.93C234.076 34.188 233.495 32.7363 232.334 31.575C231.217 30.369 229.587 29.766 227.443 29.766H217.192V42.161ZM217.192 22.061H226.84C228.939 22.061 230.502 21.5473 231.53 20.52C232.602 19.448 233.138 18.0857 233.138 16.433C233.138 14.7803 232.602 13.4627 231.53 12.48C230.502 11.4527 228.939 10.939 226.84 10.939H217.192V22.061ZM268.601 50.67C263.465 50.67 259.378 49.2407 256.34 46.382C253.348 43.5233 251.762 39.3693 251.583 33.92C251.583 33.5627 251.583 33.0937 251.583 32.513C251.583 31.8877 251.583 31.3963 251.583 31.039C251.762 27.5997 252.544 24.6517 253.928 22.195C255.313 19.6937 257.256 17.7953 259.757 16.5C262.259 15.16 265.184 14.49 268.534 14.49C272.286 14.49 275.413 15.2717 277.914 16.835C280.46 18.3537 282.359 20.453 283.609 23.133C284.905 25.7683 285.552 28.8057 285.552 32.245V33.786C285.552 34.2327 285.374 34.6123 285.016 34.925C284.704 35.2377 284.324 35.394 283.877 35.394H261.968C261.968 35.4387 261.968 35.528 261.968 35.662C261.968 35.7513 261.968 35.8407 261.968 35.93C262.013 37.3593 262.281 38.677 262.772 39.883C263.308 41.0443 264.045 41.9823 264.983 42.697C265.966 43.4117 267.127 43.769 268.467 43.769C269.584 43.769 270.5 43.6127 271.214 43.3C271.929 42.9873 272.51 42.6077 272.956 42.161C273.448 41.7143 273.805 41.3347 274.028 41.022C274.43 40.5753 274.743 40.3073 274.966 40.218C275.234 40.084 275.636 40.017 276.172 40.017H283.14C283.587 40.017 283.944 40.151 284.212 40.419C284.525 40.6423 284.659 40.9773 284.614 41.424C284.57 42.1387 284.19 43.032 283.475 44.104C282.805 45.1313 281.8 46.1587 280.46 47.186C279.12 48.1687 277.445 48.995 275.435 49.665C273.47 50.335 271.192 50.67 268.601 50.67ZM261.968 29.297H275.1V29.163C275.1 27.555 274.832 26.1703 274.296 25.009C273.805 23.803 273.068 22.865 272.085 22.195C271.103 21.525 269.919 21.19 268.534 21.19C267.15 21.19 265.966 21.525 264.983 22.195C264.001 22.865 263.241 23.803 262.705 25.009C262.214 26.1703 261.968 27.555 261.968 29.163V29.297ZM306.655 50.67C303.886 50.67 301.496 50.3573 299.486 49.732C297.521 49.062 295.913 48.258 294.662 47.32C293.456 46.382 292.54 45.444 291.915 44.506C291.334 43.5233 291.022 42.697 290.977 42.027C290.932 41.5357 291.089 41.1337 291.446 40.821C291.803 40.5083 292.161 40.352 292.518 40.352H299.017C299.151 40.352 299.285 40.3743 299.419 40.419C299.553 40.4637 299.687 40.5753 299.821 40.754C300.402 41.156 301.005 41.625 301.63 42.161C302.255 42.6523 302.97 43.0767 303.774 43.434C304.623 43.7913 305.672 43.97 306.923 43.97C308.397 43.97 309.648 43.6797 310.675 43.099C311.702 42.4737 312.216 41.6027 312.216 40.486C312.216 39.682 311.97 39.012 311.479 38.476C311.032 37.94 310.161 37.4487 308.866 37.002C307.571 36.5553 305.65 36.064 303.104 35.528C300.692 34.992 298.637 34.2773 296.94 33.384C295.243 32.4907 293.97 31.374 293.121 30.034C292.272 28.6493 291.848 26.9967 291.848 25.076C291.848 23.334 292.384 21.659 293.456 20.051C294.573 18.443 296.203 17.1253 298.347 16.098C300.491 15.026 303.171 14.49 306.387 14.49C308.844 14.49 310.988 14.8027 312.819 15.428C314.695 16.0087 316.258 16.768 317.509 17.706C318.76 18.5993 319.698 19.5373 320.323 20.52C320.993 21.458 321.35 22.2843 321.395 22.999C321.44 23.4457 321.306 23.8253 320.993 24.138C320.68 24.4507 320.323 24.607 319.921 24.607H313.958C313.735 24.607 313.534 24.5847 313.355 24.54C313.176 24.4507 313.02 24.339 312.886 24.205C312.35 23.8477 311.792 23.4457 311.211 22.999C310.675 22.5077 310.027 22.0833 309.268 21.726C308.509 21.3687 307.526 21.19 306.32 21.19C304.846 21.19 303.707 21.525 302.903 22.195C302.144 22.8203 301.764 23.6243 301.764 24.607C301.764 25.2323 301.965 25.813 302.367 26.349C302.769 26.885 303.595 27.3763 304.846 27.823C306.097 28.2697 307.995 28.7387 310.541 29.23C313.578 29.766 315.99 30.57 317.777 31.642C319.564 32.714 320.837 33.9647 321.596 35.394C322.4 36.7787 322.802 38.275 322.802 39.883C322.802 41.9823 322.177 43.8583 320.926 45.511C319.675 47.119 317.844 48.392 315.432 49.33C313.065 50.2233 310.139 50.67 306.655 50.67ZM346.522 50C343.753 50 341.386 49.5533 339.42 48.66C337.455 47.722 335.959 46.2927 334.931 44.372C333.949 42.4513 333.457 40.0393 333.457 37.136V23.066H328.231C327.74 23.066 327.338 22.9097 327.025 22.597C326.713 22.2843 326.556 21.8823 326.556 21.391V16.835C326.556 16.3437 326.713 15.9417 327.025 15.629C327.338 15.3163 327.74 15.16 328.231 15.16H333.457V4.105C333.457 3.61366 333.614 3.21166 333.926 2.899C334.284 2.58633 334.686 2.43 335.132 2.43H341.698C342.19 2.43 342.592 2.58633 342.904 2.899C343.217 3.21166 343.373 3.61366 343.373 4.105V15.16H351.748C352.195 15.16 352.575 15.3163 352.887 15.629C353.2 15.9417 353.356 16.3437 353.356 16.835V21.391C353.356 21.8823 353.2 22.2843 352.887 22.597C352.575 22.9097 352.195 23.066 351.748 23.066H343.373V36.332C343.373 38.0293 343.664 39.3693 344.244 40.352C344.87 41.29 345.942 41.759 347.46 41.759H352.351C352.798 41.759 353.178 41.9153 353.49 42.228C353.803 42.5407 353.959 42.9203 353.959 43.367V48.325C353.959 48.8163 353.803 49.2183 353.49 49.531C353.178 49.8437 352.798 50 352.351 50H346.522ZM395.295 50.67C391.23 50.67 387.724 50 384.776 48.66C381.828 47.32 379.527 45.31 377.875 42.63C376.222 39.9053 375.329 36.4883 375.195 32.379C375.15 30.4583 375.128 28.56 375.128 26.684C375.128 24.7633 375.15 22.8203 375.195 20.855C375.329 16.835 376.222 13.4627 377.875 10.738C379.572 7.96867 381.895 5.89167 384.843 4.507C387.835 3.12233 391.319 2.43 395.295 2.43C399.225 2.43 402.665 3.12233 405.613 4.507C408.605 5.89167 410.95 7.96867 412.648 10.738C414.345 13.4627 415.238 16.835 415.328 20.855C415.417 22.8203 415.462 24.7633 415.462 26.684C415.462 28.56 415.417 30.4583 415.328 32.379C415.194 36.4883 414.3 39.9053 412.648 42.63C410.995 45.31 408.695 47.32 405.747 48.66C402.799 50 399.315 50.67 395.295 50.67ZM395.295 42.027C397.885 42.027 400.007 41.2453 401.66 39.682C403.357 38.074 404.25 35.528 404.34 32.044C404.429 30.0787 404.474 28.2473 404.474 26.55C404.474 24.808 404.429 22.9767 404.34 21.056C404.295 18.7333 403.871 16.835 403.067 15.361C402.263 13.887 401.191 12.815 399.851 12.145C398.555 11.4303 397.037 11.073 395.295 11.073C393.553 11.073 392.012 11.4303 390.672 12.145C389.332 12.815 388.26 13.887 387.456 15.361C386.696 16.835 386.272 18.7333 386.183 21.056C386.138 22.9767 386.116 24.808 386.116 26.55C386.116 28.2473 386.138 30.0787 386.183 32.044C386.317 35.528 387.21 38.074 388.863 39.682C390.515 41.2453 392.659 42.027 395.295 42.027ZM429.205 50C428.714 50 428.312 49.8437 427.999 49.531C427.687 49.2183 427.53 48.8163 427.53 48.325V23.066H422.304C421.813 23.066 421.411 22.9097 421.098 22.597C420.786 22.2843 420.629 21.8823 420.629 21.391V16.835C420.629 16.3437 420.786 15.9417 421.098 15.629C421.411 15.3163 421.813 15.16 422.304 15.16H427.53V12.748C427.53 9.88933 428.066 7.54433 429.138 5.713C430.21 3.88167 431.774 2.54167 433.828 1.693C435.883 0.844333 438.407 0.419999 441.399 0.419999H446.29C446.782 0.419999 447.184 0.576332 447.496 0.888997C447.809 1.20167 447.965 1.60367 447.965 2.095V6.651C447.965 7.14233 447.809 7.54433 447.496 7.857C447.184 8.16966 446.782 8.326 446.29 8.326H441.801C440.149 8.326 438.987 8.728 438.317 9.532C437.692 10.336 437.379 11.5197 437.379 13.083V15.16H450.913V12.748C450.913 9.88933 451.449 7.54433 452.521 5.713C453.593 3.88167 455.157 2.54167 457.211 1.693C459.266 0.844333 461.79 0.419999 464.782 0.419999H469.673C470.12 0.419999 470.5 0.576332 470.812 0.888997C471.125 1.20167 471.281 1.60367 471.281 2.095V6.651C471.281 7.14233 471.125 7.54433 470.812 7.857C470.5 8.16966 470.12 8.326 469.673 8.326H465.184C463.532 8.326 462.37 8.728 461.7 9.532C461.075 10.336 460.762 11.5197 460.762 13.083V15.16H469.003C469.45 15.16 469.83 15.3163 470.142 15.629C470.455 15.9417 470.611 16.3437 470.611 16.835V21.391C470.611 21.8823 470.455 22.2843 470.142 22.597C469.83 22.9097 469.45 23.066 469.003 23.066H460.762V48.325C460.762 48.8163 460.606 49.2183 460.293 49.531C459.981 49.8437 459.579 50 459.087 50H452.521C452.075 50 451.695 49.8437 451.382 49.531C451.07 49.2183 450.913 48.8163 450.913 48.325V23.066H437.379V48.325C437.379 48.8163 437.223 49.2183 436.91 49.531C436.598 49.8437 436.218 50 435.771 50H429.205ZM491.484 50.67C486.347 50.67 482.26 49.2407 479.223 46.382C476.23 43.5233 474.644 39.3693 474.466 33.92C474.466 33.5627 474.466 33.0937 474.466 32.513C474.466 31.8877 474.466 31.3963 474.466 31.039C474.644 27.5997 475.426 24.6517 476.811 22.195C478.195 19.6937 480.138 17.7953 482.64 16.5C485.141 15.16 488.067 14.49 491.417 14.49C495.169 14.49 498.295 15.2717 500.797 16.835C503.343 18.3537 505.241 20.453 506.492 23.133C507.787 25.7683 508.435 28.8057 508.435 32.245V33.786C508.435 34.2327 508.256 34.6123 507.899 34.925C507.586 35.2377 507.206 35.394 506.76 35.394H484.851C484.851 35.4387 484.851 35.528 484.851 35.662C484.851 35.7513 484.851 35.8407 484.851 35.93C484.895 37.3593 485.163 38.677 485.655 39.883C486.191 41.0443 486.928 41.9823 487.866 42.697C488.848 43.4117 490.01 43.769 491.35 43.769C492.466 43.769 493.382 43.6127 494.097 43.3C494.811 42.9873 495.392 42.6077 495.839 42.161C496.33 41.7143 496.687 41.3347 496.911 41.022C497.313 40.5753 497.625 40.3073 497.849 40.218C498.117 40.084 498.519 40.017 499.055 40.017H506.023C506.469 40.017 506.827 40.151 507.095 40.419C507.407 40.6423 507.541 40.9773 507.497 41.424C507.452 42.1387 507.072 43.032 506.358 44.104C505.688 45.1313 504.683 46.1587 503.343 47.186C502.003 48.1687 500.328 48.995 498.318 49.665C496.352 50.335 494.074 50.67 491.484 50.67ZM484.851 29.297H497.983V29.163C497.983 27.555 497.715 26.1703 497.179 25.009C496.687 23.803 495.95 22.865 494.968 22.195C493.985 21.525 492.801 21.19 491.417 21.19C490.032 21.19 488.848 21.525 487.866 22.195C486.883 22.865 486.124 23.803 485.588 25.009C485.096 26.1703 484.851 27.555 484.851 29.163V29.297ZM517.41 50C516.964 50 516.584 49.8437 516.271 49.531C515.959 49.2183 515.802 48.8163 515.802 48.325V16.835C515.802 16.3883 515.959 16.0087 516.271 15.696C516.584 15.3387 516.964 15.16 517.41 15.16H523.976C524.423 15.16 524.803 15.3387 525.115 15.696C525.473 16.0087 525.651 16.3883 525.651 16.835V19.515C526.768 18.1303 528.13 17.0583 529.738 16.299C531.391 15.5397 533.289 15.16 535.433 15.16H538.314C538.761 15.16 539.141 15.3163 539.453 15.629C539.766 15.9417 539.922 16.3437 539.922 16.835V22.597C539.922 23.0883 539.766 23.4903 539.453 23.803C539.141 24.1157 538.761 24.272 538.314 24.272H532.418C530.453 24.272 528.912 24.8303 527.795 25.947C526.679 27.019 526.12 28.56 526.12 30.57V48.325C526.12 48.8163 525.964 49.2183 525.651 49.531C525.339 49.8437 524.937 50 524.445 50H517.41ZM18.167 139.67C14.4597 139.67 11.3553 139.067 8.854 137.861C6.35267 136.61 4.432 134.846 3.092 132.568C1.79667 130.29 1.082 127.632 0.948 124.595C0.903333 123.702 0.881 122.697 0.881 121.58C0.881 120.419 0.903333 119.414 0.948 118.565C1.082 115.483 1.84133 112.825 3.226 110.592C4.61067 108.314 6.55367 106.572 9.055 105.366C11.5563 104.115 14.5937 103.49 18.167 103.49C21.6957 103.49 24.7107 104.115 27.212 105.366C29.7133 106.572 31.6563 108.314 33.041 110.592C34.4257 112.825 35.185 115.483 35.319 118.565C35.4083 119.414 35.453 120.419 35.453 121.58C35.453 122.697 35.4083 123.702 35.319 124.595C35.185 127.632 34.448 130.29 33.108 132.568C31.8127 134.846 29.9143 136.61 27.413 137.861C24.9117 139.067 21.8297 139.67 18.167 139.67ZM18.167 132.3C20.3557 132.3 22.0083 131.63 23.125 130.29C24.2417 128.905 24.8447 126.895 24.934 124.26C24.9787 123.59 25.001 122.697 25.001 121.58C25.001 120.463 24.9787 119.57 24.934 118.9C24.8447 116.309 24.2417 114.322 23.125 112.937C22.0083 111.552 20.3557 110.86 18.167 110.86C15.9783 110.86 14.3033 111.552 13.142 112.937C12.0253 114.322 11.4223 116.309 11.333 118.9C11.2883 119.57 11.266 120.463 11.266 121.58C11.266 122.697 11.2883 123.59 11.333 124.26C11.4223 126.895 12.0253 128.905 13.142 130.29C14.3033 131.63 15.9783 132.3 18.167 132.3ZM44.7383 139C44.2916 139 43.9119 138.844 43.5993 138.531C43.2866 138.218 43.1303 137.816 43.1303 137.325V105.835C43.1303 105.344 43.2866 104.942 43.5993 104.629C43.9119 104.316 44.2916 104.16 44.7383 104.16H51.3043C51.7956 104.16 52.1976 104.316 52.5103 104.629C52.8229 104.942 52.9793 105.344 52.9793 105.835V108.448C54.1406 107.019 55.6369 105.835 57.4683 104.897C59.2996 103.959 61.5329 103.49 64.1683 103.49C66.8036 103.49 69.1039 104.093 71.0693 105.299C73.0793 106.46 74.6426 108.18 75.7593 110.458C76.9206 112.691 77.5013 115.416 77.5013 118.632V137.325C77.5013 137.816 77.3226 138.218 76.9653 138.531C76.6526 138.844 76.2729 139 75.8263 139H68.7243C68.2329 139 67.8309 138.844 67.5183 138.531C67.2056 138.218 67.0493 137.816 67.0493 137.325V119.034C67.0493 116.667 66.4686 114.835 65.3073 113.54C64.1906 112.2 62.5379 111.53 60.3493 111.53C58.2499 111.53 56.5749 112.2 55.3243 113.54C54.0736 114.835 53.4483 116.667 53.4483 119.034V137.325C53.4483 137.816 53.2919 138.218 52.9793 138.531C52.6666 138.844 52.2869 139 51.8403 139H44.7383ZM104.068 139C103.576 139 103.174 138.844 102.862 138.531C102.549 138.218 102.393 137.816 102.393 137.325V93.775C102.393 93.2837 102.549 92.8817 102.862 92.569C103.174 92.2563 103.576 92.1 104.068 92.1H133.95C134.441 92.1 134.843 92.2563 135.156 92.569C135.468 92.8817 135.625 93.2837 135.625 93.775V99.47C135.625 99.9613 135.468 100.363 135.156 100.676C134.843 100.989 134.441 101.145 133.95 101.145H112.845V112.468H132.61C133.101 112.468 133.503 112.624 133.816 112.937C134.128 113.25 134.285 113.652 134.285 114.143V119.838C134.285 120.285 134.128 120.664 133.816 120.977C133.503 121.29 133.101 121.446 132.61 121.446H112.845V137.325C112.845 137.816 112.688 138.218 112.376 138.531C112.063 138.844 111.661 139 111.17 139H104.068ZM151.835 139.67C149.467 139.67 147.346 139.223 145.47 138.33C143.594 137.392 142.097 136.141 140.981 134.578C139.864 133.015 139.306 131.273 139.306 129.352C139.306 126.181 140.579 123.679 143.125 121.848C145.715 120.017 149.11 118.766 153.309 118.096L162.086 116.823V115.617C162.086 113.875 161.684 112.535 160.88 111.597C160.076 110.659 158.669 110.19 156.659 110.19C155.185 110.19 154.001 110.48 153.108 111.061C152.214 111.642 151.522 112.401 151.031 113.339C150.673 113.92 150.16 114.21 149.49 114.21H143.125C142.633 114.21 142.254 114.076 141.986 113.808C141.718 113.495 141.606 113.138 141.651 112.736C141.651 111.977 141.941 111.083 142.522 110.056C143.102 109.029 143.996 108.024 145.202 107.041C146.408 106.014 147.949 105.165 149.825 104.495C151.701 103.825 154.001 103.49 156.726 103.49C159.54 103.49 161.952 103.825 163.962 104.495C165.972 105.165 167.58 106.103 168.786 107.309C169.992 108.515 170.885 109.922 171.466 111.53C172.046 113.093 172.337 114.791 172.337 116.622V137.325C172.337 137.816 172.18 138.218 171.868 138.531C171.555 138.844 171.153 139 170.662 139H164.096C163.649 139 163.269 138.844 162.957 138.531C162.644 138.218 162.488 137.816 162.488 137.325V134.846C161.907 135.695 161.125 136.499 160.143 137.258C159.16 137.973 157.976 138.553 156.592 139C155.252 139.447 153.666 139.67 151.835 139.67ZM154.515 132.702C155.989 132.702 157.306 132.389 158.468 131.764C159.629 131.139 160.545 130.178 161.215 128.883C161.885 127.588 162.22 125.957 162.22 123.992V122.853L155.989 123.858C153.577 124.26 151.812 124.863 150.696 125.667C149.579 126.471 149.021 127.454 149.021 128.615C149.021 129.464 149.266 130.201 149.758 130.826C150.294 131.451 150.986 131.92 151.835 132.233C152.683 132.546 153.577 132.702 154.515 132.702ZM194.854 139.67C192.085 139.67 189.695 139.357 187.685 138.732C185.72 138.062 184.112 137.258 182.861 136.32C181.655 135.382 180.739 134.444 180.114 133.506C179.533 132.523 179.221 131.697 179.176 131.027C179.131 130.536 179.288 130.134 179.645 129.821C180.002 129.508 180.36 129.352 180.717 129.352H187.216C187.35 129.352 187.484 129.374 187.618 129.419C187.752 129.464 187.886 129.575 188.02 129.754C188.601 130.156 189.204 130.625 189.829 131.161C190.454 131.652 191.169 132.077 191.973 132.434C192.822 132.791 193.871 132.97 195.122 132.97C196.596 132.97 197.847 132.68 198.874 132.099C199.901 131.474 200.415 130.603 200.415 129.486C200.415 128.682 200.169 128.012 199.678 127.476C199.231 126.94 198.36 126.449 197.065 126.002C195.77 125.555 193.849 125.064 191.303 124.528C188.891 123.992 186.836 123.277 185.139 122.384C183.442 121.491 182.169 120.374 181.32 119.034C180.471 117.649 180.047 115.997 180.047 114.076C180.047 112.334 180.583 110.659 181.655 109.051C182.772 107.443 184.402 106.125 186.546 105.098C188.69 104.026 191.37 103.49 194.586 103.49C197.043 103.49 199.187 103.803 201.018 104.428C202.894 105.009 204.457 105.768 205.708 106.706C206.959 107.599 207.897 108.537 208.522 109.52C209.192 110.458 209.549 111.284 209.594 111.999C209.639 112.446 209.505 112.825 209.192 113.138C208.879 113.451 208.522 113.607 208.12 113.607H202.157C201.934 113.607 201.733 113.585 201.554 113.54C201.375 113.451 201.219 113.339 201.085 113.205C200.549 112.848 199.991 112.446 199.41 111.999C198.874 111.508 198.226 111.083 197.467 110.726C196.708 110.369 195.725 110.19 194.519 110.19C193.045 110.19 191.906 110.525 191.102 111.195C190.343 111.82 189.963 112.624 189.963 113.607C189.963 114.232 190.164 114.813 190.566 115.349C190.968 115.885 191.794 116.376 193.045 116.823C194.296 117.27 196.194 117.739 198.74 118.23C201.777 118.766 204.189 119.57 205.976 120.642C207.763 121.714 209.036 122.965 209.795 124.394C210.599 125.779 211.001 127.275 211.001 128.883C211.001 130.982 210.376 132.858 209.125 134.511C207.874 136.119 206.043 137.392 203.631 138.33C201.264 139.223 198.338 139.67 194.854 139.67ZM234.721 139C231.952 139 229.585 138.553 227.619 137.66C225.654 136.722 224.158 135.293 223.13 133.372C222.148 131.451 221.656 129.039 221.656 126.136V112.066H216.43C215.939 112.066 215.537 111.91 215.224 111.597C214.912 111.284 214.755 110.882 214.755 110.391V105.835C214.755 105.344 214.912 104.942 215.224 104.629C215.537 104.316 215.939 104.16 216.43 104.16H221.656V93.105C221.656 92.6137 221.813 92.2117 222.125 91.899C222.483 91.5863 222.885 91.43 223.331 91.43H229.897C230.389 91.43 230.791 91.5863 231.103 91.899C231.416 92.2117 231.572 92.6137 231.572 93.105V104.16H239.947C240.394 104.16 240.774 104.316 241.086 104.629C241.399 104.942 241.555 105.344 241.555 105.835V110.391C241.555 110.882 241.399 111.284 241.086 111.597C240.774 111.91 240.394 112.066 239.947 112.066H231.572V125.332C231.572 127.029 231.863 128.369 232.443 129.352C233.069 130.29 234.141 130.759 235.659 130.759H240.55C240.997 130.759 241.377 130.915 241.689 131.228C242.002 131.541 242.158 131.92 242.158 132.367V137.325C242.158 137.816 242.002 138.218 241.689 138.531C241.377 138.844 240.997 139 240.55 139H234.721ZM19.608 228.73C15.958 228.73 12.7703 228.146 10.045 226.978C7.31967 225.761 5.20267 224.034 3.694 221.795C2.18533 219.556 1.431 216.928 1.431 213.911C1.431 211.77 1.84467 209.872 2.672 208.217C3.548 206.562 4.74033 205.078 6.249 203.764C7.75767 202.401 9.48533 201.16 11.432 200.041C9.43667 197.9 8.001 195.953 7.125 194.201C6.29767 192.449 5.884 190.648 5.884 188.799C5.884 186.56 6.468 184.492 7.636 182.594C8.804 180.696 10.5317 179.163 12.819 177.995C15.1063 176.778 17.9047 176.17 21.214 176.17C24.3287 176.17 26.981 176.754 29.171 177.922C31.361 179.041 33.04 180.55 34.208 182.448C35.376 184.346 35.96 186.414 35.96 188.653C35.96 190.648 35.4977 192.449 34.573 194.055C33.697 195.612 32.4803 197.024 30.923 198.289C29.3657 199.554 27.5893 200.771 25.594 201.939L35.157 211.502C35.6437 210.675 36.252 209.531 36.982 208.071C37.712 206.611 38.369 204.737 38.953 202.45C39.099 201.671 39.61 201.282 40.486 201.282H46.837C47.275 201.282 47.6157 201.428 47.859 201.72C48.151 201.963 48.297 202.304 48.297 202.742C48.2483 203.667 48.0293 204.762 47.64 206.027C47.2507 207.244 46.7153 208.533 46.034 209.896C45.3527 211.259 44.5983 212.597 43.771 213.911C42.9437 215.225 42.1163 216.442 41.289 217.561L49.246 225.591C49.5867 225.98 49.757 226.345 49.757 226.686C49.757 227.075 49.6353 227.392 49.392 227.635C49.1487 227.878 48.808 228 48.37 228H39.975C39.4883 228 39.099 227.927 38.807 227.781C38.515 227.586 38.2473 227.416 38.004 227.27L34.354 223.766C32.4073 225.372 30.2173 226.613 27.784 227.489C25.3993 228.316 22.674 228.73 19.608 228.73ZM19.608 220.335C21.214 220.335 22.7227 220.092 24.134 219.605C25.594 219.07 26.9323 218.218 28.149 217.05L17.345 206.465C15.8363 207.292 14.5467 208.29 13.476 209.458C12.4053 210.577 11.87 211.94 11.87 213.546C11.87 214.957 12.235 216.174 12.965 217.196C13.695 218.218 14.644 218.997 15.812 219.532C17.0287 220.067 18.294 220.335 19.608 220.335ZM19.9 195.88C21.1167 195.199 22.236 194.542 23.258 193.909C24.28 193.228 25.083 192.498 25.667 191.719C26.251 190.892 26.543 189.967 26.543 188.945C26.543 187.436 26.032 186.244 25.01 185.368C23.988 184.492 22.7227 184.054 21.214 184.054C19.8027 184.054 18.5617 184.492 17.491 185.368C16.4203 186.244 15.885 187.436 15.885 188.945C15.885 189.626 16.0067 190.308 16.25 190.989C16.4933 191.622 16.907 192.327 17.491 193.106C18.075 193.885 18.878 194.809 19.9 195.88Z" fill="#242A3D"/>
<path d="M301.641 103L300.361 108.92H288.681L282.201 139H270.681L282.201 85.56C280.761 85.6133 279.401 85.9067 278.121 86.44C276.841 86.9733 275.721 87.8533 274.761 89.08C273.854 90.2533 273.134 91.8533 272.601 93.88C272.068 95.8533 271.801 98.36 271.801 101.4C271.801 102.467 271.828 103.347 271.881 104.04C271.988 104.733 272.094 105.32 272.201 105.8C272.308 106.227 272.414 106.573 272.521 106.84C272.681 107.107 272.814 107.347 272.921 107.56C270.041 107.56 267.881 106.973 266.441 105.8C265.054 104.627 264.361 102.52 264.361 99.48C264.361 96.92 264.868 94.4133 265.881 91.96C266.948 89.5067 268.548 87.32 270.681 85.4C272.868 83.48 275.588 81.9333 278.841 80.76C282.148 79.5867 286.041 79 290.521 79C291.908 79 293.161 79.0533 294.281 79.16C295.454 79.2667 296.601 79.3733 297.721 79.48C298.841 79.5867 299.961 79.6933 301.081 79.8C302.254 79.9067 303.508 79.96 304.841 79.96C306.174 79.96 307.428 79.9067 308.601 79.8C309.828 79.64 311.001 79.3733 312.121 79C311.641 81.1333 311.081 82.84 310.441 84.12C309.801 85.3467 309.108 86.3067 308.361 87C307.614 87.64 306.788 88.0667 305.881 88.28C305.028 88.4933 304.148 88.6 303.241 88.6C301.748 88.6 300.148 88.4667 298.441 88.2C296.788 87.88 295.081 87.5333 293.321 87.16L289.961 103H301.641ZM323.687 98.6C330.407 98.6 333.821 102.787 333.927 111.16C334.141 111.213 334.434 111.24 334.807 111.24C335.714 111.24 336.701 111.107 337.767 110.84C338.887 110.573 339.981 110.227 341.047 109.8C342.167 109.32 343.234 108.787 344.247 108.2C345.314 107.613 346.274 107.027 347.127 106.44L347.847 108.6C346.301 110.253 344.274 111.667 341.767 112.84C339.314 113.96 336.647 114.76 333.767 115.24C333.447 118.973 332.727 122.333 331.607 125.32C330.487 128.307 329.074 130.867 327.367 133C325.661 135.08 323.714 136.68 321.527 137.8C319.341 138.92 317.021 139.48 314.567 139.48C312.701 139.48 310.967 139.267 309.367 138.84C307.821 138.36 306.487 137.613 305.367 136.6C304.247 135.587 303.367 134.28 302.727 132.68C302.087 131.08 301.767 129.133 301.767 126.84C301.767 125.293 301.927 123.533 302.247 121.56C302.567 119.587 303.074 117.56 303.767 115.48C304.514 113.347 305.447 111.293 306.567 109.32C307.687 107.293 309.047 105.48 310.647 103.88C312.301 102.28 314.194 101 316.327 100.04C318.461 99.08 320.914 98.6 323.687 98.6ZM317.767 131.96C318.727 131.96 319.687 131.56 320.647 130.76C321.661 129.907 322.567 128.76 323.367 127.32C324.221 125.827 324.967 124.067 325.607 122.04C326.247 120.013 326.727 117.827 327.047 115.48C326.194 115.267 325.607 114.867 325.287 114.28C325.021 113.64 324.887 112.92 324.887 112.12C324.887 111 325.101 110.093 325.527 109.4C326.007 108.653 326.621 108.147 327.367 107.88C327.261 106.227 326.967 105.08 326.487 104.44C326.061 103.747 325.341 103.4 324.327 103.4C322.887 103.4 321.527 104.2 320.247 105.8C318.967 107.347 317.847 109.267 316.887 111.56C315.927 113.8 315.154 116.2 314.567 118.76C313.981 121.267 313.687 123.507 313.687 125.48C313.687 126.813 313.741 127.907 313.847 128.76C314.007 129.56 314.247 130.2 314.567 130.68C314.887 131.16 315.314 131.507 315.847 131.72C316.381 131.88 317.021 131.96 317.767 131.96ZM359.643 98.6C366.363 98.6 369.777 102.787 369.883 111.16C370.097 111.213 370.39 111.24 370.763 111.24C371.67 111.24 372.657 111.107 373.723 110.84C374.843 110.573 375.937 110.227 377.003 109.8C378.123 109.32 379.19 108.787 380.203 108.2C381.27 107.613 382.23 107.027 383.083 106.44L383.803 108.6C382.257 110.253 380.23 111.667 377.723 112.84C375.27 113.96 372.603 114.76 369.723 115.24C369.403 118.973 368.683 122.333 367.563 125.32C366.443 128.307 365.03 130.867 363.323 133C361.617 135.08 359.67 136.68 357.483 137.8C355.297 138.92 352.977 139.48 350.523 139.48C348.657 139.48 346.923 139.267 345.323 138.84C343.777 138.36 342.443 137.613 341.323 136.6C340.203 135.587 339.323 134.28 338.683 132.68C338.043 131.08 337.723 129.133 337.723 126.84C337.723 125.293 337.883 123.533 338.203 121.56C338.523 119.587 339.03 117.56 339.723 115.48C340.47 113.347 341.403 111.293 342.523 109.32C343.643 107.293 345.003 105.48 346.603 103.88C348.257 102.28 350.15 101 352.283 100.04C354.417 99.08 356.87 98.6 359.643 98.6ZM353.723 131.96C354.683 131.96 355.643 131.56 356.603 130.76C357.617 129.907 358.523 128.76 359.323 127.32C360.177 125.827 360.923 124.067 361.563 122.04C362.203 120.013 362.683 117.827 363.003 115.48C362.15 115.267 361.563 114.867 361.243 114.28C360.977 113.64 360.843 112.92 360.843 112.12C360.843 111 361.057 110.093 361.483 109.4C361.963 108.653 362.577 108.147 363.323 107.88C363.217 106.227 362.923 105.08 362.443 104.44C362.017 103.747 361.297 103.4 360.283 103.4C358.843 103.4 357.483 104.2 356.203 105.8C354.923 107.347 353.803 109.267 352.843 111.56C351.883 113.8 351.11 116.2 350.523 118.76C349.937 121.267 349.643 123.507 349.643 125.48C349.643 126.813 349.697 127.907 349.803 128.76C349.963 129.56 350.203 130.2 350.523 130.68C350.843 131.16 351.27 131.507 351.803 131.72C352.337 131.88 352.977 131.96 353.723 131.96ZM407.36 126.2C407.253 126.627 407.173 127.027 407.12 127.4C407.066 127.773 407.04 128.147 407.04 128.52C407.04 129.427 407.28 130.2 407.76 130.84C408.24 131.427 409.093 131.72 410.32 131.72C411.066 131.72 411.6 131.667 411.92 131.56C412.293 131.453 412.613 131.347 412.88 131.24C412.773 132.68 412.453 133.907 411.92 134.92C411.386 135.933 410.72 136.787 409.92 137.48C409.12 138.173 408.213 138.68 407.2 139C406.186 139.32 405.146 139.48 404.08 139.48C402.053 139.48 400.266 138.973 398.72 137.96C397.226 136.893 396.24 135.187 395.76 132.84C394.533 134.547 392.986 136.093 391.12 137.48C389.306 138.813 387.066 139.48 384.4 139.48C383.013 139.48 381.68 139.267 380.4 138.84C379.173 138.36 378.053 137.613 377.04 136.6C376.026 135.587 375.226 134.28 374.64 132.68C374.053 131.027 373.76 129 373.76 126.6C373.76 124.787 373.946 122.84 374.32 120.76C374.693 118.68 375.253 116.6 376 114.52C376.746 112.44 377.68 110.44 378.8 108.52C379.92 106.6 381.253 104.92 382.8 103.48C384.346 101.987 386.053 100.813 387.92 99.96C389.84 99.0533 391.973 98.6 394.32 98.6C394.96 98.6 395.626 98.6533 396.32 98.76C397.066 98.8133 397.733 99 398.32 99.32C398.96 99.5867 399.493 99.9867 399.92 100.52C400.4 101.053 400.72 101.773 400.88 102.68L404.72 84.6L416.56 83L407.36 126.2ZM389.6 131.72C390.133 131.72 390.72 131.613 391.36 131.4C392 131.133 392.613 130.733 393.2 130.2C393.84 129.613 394.426 128.893 394.96 128.04C395.493 127.133 395.893 126.013 396.16 124.68L400.08 106.44C399.973 105.907 399.706 105.293 399.28 104.6C398.853 103.907 398.026 103.56 396.8 103.56C395.093 103.56 393.546 104.36 392.16 105.96C390.773 107.507 389.6 109.427 388.64 111.72C387.68 113.96 386.933 116.36 386.4 118.92C385.866 121.427 385.6 123.613 385.6 125.48C385.6 127.027 385.733 128.227 386 129.08C386.32 129.88 386.666 130.493 387.04 130.92C387.466 131.293 387.893 131.533 388.32 131.64C388.8 131.693 389.226 131.72 389.6 131.72ZM102.645 175.52L98.7252 194H99.3652C101.019 194 102.539 193.573 103.925 192.72C105.312 191.813 106.512 190.693 107.525 189.36C108.539 187.973 109.312 186.453 109.845 184.8C110.432 183.093 110.725 181.44 110.725 179.84C110.725 178.773 110.565 177.76 110.245 176.8C109.979 175.787 109.472 174.907 108.725 174.16C107.979 173.413 106.939 172.827 105.605 172.4C104.325 171.92 102.672 171.68 100.645 171.68C97.8719 171.68 95.2586 172.133 92.8052 173.04C90.3519 173.893 88.1919 175.173 86.3252 176.88C84.5119 178.533 83.0452 180.56 81.9252 182.96C80.8586 185.36 80.3252 188.08 80.3252 191.12C80.3252 192.08 80.3786 192.88 80.4852 193.52C80.5919 194.107 80.6986 194.613 80.8052 195.04C80.9119 195.413 81.0186 195.733 81.1252 196C81.2852 196.213 81.3919 196.4 81.4452 196.56C78.7786 196.56 76.6719 196.027 75.1252 194.96C73.6319 193.84 72.8852 191.92 72.8852 189.2C72.8852 186.427 73.6852 183.787 75.2852 181.28C76.8852 178.72 79.0186 176.453 81.6852 174.48C84.4052 172.507 87.4986 170.933 90.9652 169.76C94.4319 168.587 98.0052 168 101.685 168C104.565 168 107.099 168.373 109.285 169.12C111.472 169.813 113.285 170.773 114.725 172C116.219 173.173 117.312 174.533 118.005 176.08C118.752 177.627 119.125 179.227 119.125 180.88C119.125 183.28 118.379 185.76 116.885 188.32C115.392 190.827 113.232 192.88 110.405 194.48C112.592 195.067 114.059 196.08 114.805 197.52C115.605 198.907 116.005 200.533 116.005 202.4C116.005 204.053 115.792 205.813 115.365 207.68C114.992 209.547 114.539 211.387 114.005 213.2C113.525 214.96 113.072 216.667 112.645 218.32C112.272 219.973 112.085 221.387 112.085 222.56C112.085 223.893 112.352 225.04 112.885 226C113.472 226.96 114.245 227.627 115.205 228C113.499 228.48 111.979 228.827 110.645 229.04C109.365 229.253 108.245 229.36 107.285 229.36C106.005 229.36 104.939 229.2 104.085 228.88C103.285 228.56 102.645 228.16 102.165 227.68C101.739 227.147 101.445 226.56 101.285 225.92C101.125 225.28 101.045 224.64 101.045 224C101.045 222.667 101.259 221.12 101.685 219.36C102.165 217.547 102.645 215.68 103.125 213.76C103.659 211.84 104.139 209.947 104.565 208.08C105.045 206.213 105.285 204.507 105.285 202.96C105.285 201.36 104.939 200.053 104.245 199.04C103.552 198.027 102.325 197.52 100.565 197.52C100.139 197.52 99.7119 197.547 99.2852 197.6C98.8586 197.653 98.3786 197.733 97.8452 197.84L91.4452 228H79.9252L90.8052 177.12L102.645 175.52ZM133.316 215.04C133.316 217.76 133.796 219.573 134.756 220.48C135.716 221.333 137.156 221.76 139.076 221.76C140.676 221.76 142.116 221.547 143.396 221.12C144.676 220.693 145.876 220.133 146.996 219.44C148.116 218.693 149.183 217.84 150.196 216.88C151.21 215.867 152.223 214.8 153.236 213.68H155.956C154.836 215.547 153.556 217.36 152.116 219.12C150.676 220.88 149.05 222.453 147.236 223.84C145.423 225.227 143.423 226.347 141.236 227.2C139.05 228.053 136.623 228.48 133.956 228.48C130.17 228.48 127.13 227.493 124.836 225.52C122.596 223.547 121.476 220.293 121.476 215.76C121.476 214.213 121.636 212.453 121.956 210.48C122.276 208.507 122.756 206.48 123.396 204.4C124.09 202.32 124.996 200.293 126.116 198.32C127.236 196.293 128.596 194.48 130.196 192.88C131.796 191.28 133.663 190 135.796 189.04C137.93 188.08 140.356 187.6 143.076 187.6C144.836 187.6 146.276 187.813 147.396 188.24C148.57 188.667 149.476 189.253 150.116 190C150.81 190.693 151.263 191.493 151.476 192.4C151.743 193.307 151.876 194.267 151.876 195.28C151.876 197.52 151.37 199.627 150.356 201.6C149.343 203.573 147.983 205.307 146.276 206.8C144.57 208.24 142.596 209.413 140.356 210.32C138.17 211.173 135.876 211.68 133.476 211.84C133.423 212.427 133.37 212.987 133.316 213.52C133.316 214.053 133.316 214.56 133.316 215.04ZM145.716 195.12C145.716 194.107 145.556 193.307 145.236 192.72C144.97 192.133 144.463 191.84 143.716 191.84C142.703 191.84 141.716 192.32 140.756 193.28C139.796 194.24 138.89 195.493 138.036 197.04C137.183 198.533 136.41 200.24 135.716 202.16C135.076 204.08 134.543 206.027 134.116 208C135.663 207.893 137.13 207.467 138.516 206.72C139.956 205.973 141.21 205.013 142.276 203.84C143.343 202.667 144.17 201.333 144.756 199.84C145.396 198.293 145.716 196.72 145.716 195.12ZM187.94 213.68C185.86 216.08 183.753 218.08 181.62 219.68C179.54 221.28 177.566 222.613 175.7 223.68C174.846 224.587 173.913 225.333 172.9 225.92C171.886 226.507 170.82 227.013 169.7 227.44C168.58 227.813 167.46 228.08 166.34 228.24C165.22 228.4 164.153 228.48 163.14 228.48C161.113 228.48 159.353 228.187 157.86 227.6C156.42 226.96 155.22 226.16 154.26 225.2C153.3 224.24 152.606 223.147 152.18 221.92C151.7 220.693 151.46 219.467 151.46 218.24C151.46 216.373 151.886 214.8 152.74 213.52C153.593 212.24 154.58 211.333 155.7 210.8C157.94 206.8 159.833 202.853 161.38 198.96C162.926 195.013 164.313 191.067 165.54 187.12L177.38 185.52C177.593 190.693 177.806 194.88 178.02 198.08C178.233 201.28 178.42 203.893 178.58 205.92C178.74 207.893 178.873 209.52 178.98 210.8C179.086 212.027 179.14 213.307 179.14 214.64C179.14 215.813 179.033 216.827 178.82 217.68C181.113 216.347 183.033 215.013 184.58 213.68H187.94ZM161.38 213.68C161.38 214.64 161.06 215.547 160.42 216.4C159.78 217.2 158.926 217.6 157.86 217.6C157.433 217.6 157.006 217.547 156.58 217.44C156.206 217.28 155.913 216.987 155.7 216.56C155.7 218.427 156.073 219.84 156.82 220.8C157.566 221.707 158.82 222.16 160.58 222.16C161.433 222.16 162.286 222.053 163.14 221.84C163.993 221.573 164.74 221.147 165.38 220.56C166.02 219.973 166.526 219.2 166.9 218.24C167.326 217.28 167.54 216.107 167.54 214.72C167.54 213.707 167.486 212.72 167.38 211.76C167.326 210.8 167.22 209.653 167.06 208.32C166.953 206.987 166.793 205.333 166.58 203.36C166.42 201.387 166.233 198.853 166.02 195.76C165.22 198.373 164.26 200.907 163.14 203.36C162.073 205.813 160.873 208.32 159.54 210.88C160.073 211.147 160.5 211.52 160.82 212C161.193 212.427 161.38 212.987 161.38 213.68ZM205.046 175.36L202.326 188H207.126L206.486 191.2H201.686L196.566 215.2C196.353 216.107 196.246 216.96 196.246 217.76C196.246 218.88 196.513 219.653 197.046 220.08C197.58 220.507 198.406 220.72 199.526 220.72C201.073 220.72 202.513 220.053 203.846 218.72C205.18 217.387 206.14 215.707 206.726 213.68H210.086C208.966 216.933 207.66 219.547 206.166 221.52C204.673 223.44 203.153 224.933 201.606 226C200.06 227.013 198.54 227.68 197.046 228C195.606 228.32 194.353 228.48 193.286 228.48C190.886 228.48 188.86 227.733 187.206 226.24C185.553 224.693 184.726 222.24 184.726 218.88C184.726 217.44 184.94 215.707 185.366 213.68L190.166 191.2H187.526L188.166 188H190.806L193.206 176.96L205.046 175.36ZM245.975 188L240.135 215.2C239.921 216.107 239.815 216.96 239.815 217.76C239.815 218.88 240.081 219.653 240.615 220.08C241.148 220.507 241.975 220.72 243.095 220.72C244.641 220.72 245.948 220.053 247.015 218.72C248.135 217.387 248.988 215.707 249.575 213.68H252.935C251.815 216.933 250.535 219.52 249.095 221.44C247.708 223.307 246.268 224.747 244.775 225.76C243.335 226.72 241.921 227.333 240.535 227.6C239.148 227.867 237.921 228 236.855 228C234.668 228 232.881 227.413 231.495 226.24C230.161 225.067 229.335 223.333 229.015 221.04C228.428 221.947 227.735 222.853 226.935 223.76C226.135 224.667 225.228 225.467 224.215 226.16C223.255 226.853 222.188 227.413 221.015 227.84C219.841 228.267 218.535 228.48 217.095 228.48C215.708 228.48 214.375 228.267 213.095 227.84C211.868 227.36 210.748 226.613 209.735 225.6C208.721 224.587 207.921 223.28 207.335 221.68C206.748 220.027 206.455 218 206.455 215.6C206.455 213.787 206.641 211.84 207.015 209.76C207.388 207.68 207.948 205.6 208.695 203.52C209.441 201.44 210.375 199.44 211.495 197.52C212.615 195.6 213.948 193.92 215.495 192.48C217.041 190.987 218.748 189.813 220.615 188.96C222.535 188.053 224.668 187.6 227.015 187.6C227.655 187.6 228.321 187.653 229.015 187.76C229.761 187.813 230.428 188 231.015 188.32C231.655 188.587 232.188 189.013 232.615 189.6C233.095 190.133 233.415 190.853 233.575 191.76L234.375 188H245.975ZM229.495 192.56C227.788 192.56 226.241 193.36 224.855 194.96C223.468 196.507 222.295 198.427 221.335 200.72C220.375 202.96 219.628 205.36 219.095 207.92C218.561 210.427 218.295 212.613 218.295 214.48C218.295 216.027 218.428 217.227 218.695 218.08C219.015 218.88 219.361 219.493 219.735 219.92C220.161 220.293 220.588 220.533 221.015 220.64C221.495 220.693 221.921 220.72 222.295 220.72C222.881 220.72 223.495 220.587 224.135 220.32C224.828 220 225.495 219.547 226.135 218.96C226.775 218.373 227.335 217.653 227.815 216.8C228.295 215.893 228.668 214.853 228.935 213.68L232.775 195.6C232.775 195.387 232.695 195.12 232.535 194.8C232.428 194.427 232.241 194.08 231.975 193.76C231.761 193.44 231.441 193.173 231.015 192.96C230.641 192.693 230.135 192.56 229.495 192.56ZM287.124 188L281.364 215.2C281.151 216.107 281.044 216.96 281.044 217.76C281.044 218.88 281.311 219.653 281.844 220.08C282.377 220.507 283.204 220.72 284.324 220.72C285.871 220.72 287.177 220.053 288.244 218.72C289.364 217.387 290.217 215.707 290.804 213.68H294.164C293.044 216.933 291.764 219.547 290.324 221.52C288.937 223.44 287.497 224.933 286.004 226C284.564 227.013 283.151 227.68 281.764 228C280.377 228.32 279.151 228.48 278.084 228.48C275.791 228.48 273.951 227.84 272.564 226.56C271.231 225.28 270.431 223.387 270.164 220.88C269.151 222.533 268.111 223.867 267.044 224.88C266.031 225.84 265.017 226.587 264.004 227.12C262.991 227.653 262.004 228 261.044 228.16C260.084 228.373 259.177 228.48 258.324 228.48C255.924 228.48 253.897 227.733 252.244 226.24C250.591 224.693 249.764 222.24 249.764 218.88C249.764 217.44 249.977 215.707 250.404 213.68L255.844 188H267.364L261.604 215.2C261.444 216 261.364 216.747 261.364 217.44C261.364 218.347 261.524 219.12 261.844 219.76C262.217 220.4 262.857 220.72 263.764 220.72C265.311 220.72 266.617 220.053 267.684 218.72C268.751 217.387 269.577 215.707 270.164 213.68L275.604 188H287.124ZM308.555 188L307.435 193.04C308.981 191.547 310.581 190.267 312.235 189.2C313.941 188.133 315.595 187.6 317.195 187.6C319.008 187.6 320.368 188.213 321.275 189.44C322.235 190.667 322.715 192.053 322.715 193.6C322.715 194.293 322.581 194.987 322.315 195.68C322.101 196.373 321.755 197.013 321.275 197.6C320.795 198.133 320.181 198.587 319.435 198.96C318.741 199.28 317.915 199.44 316.955 199.44C315.835 199.44 315.061 199.173 314.635 198.64C314.261 198.107 313.995 197.547 313.835 196.96C313.675 196.32 313.515 195.733 313.355 195.2C313.248 194.667 312.901 194.4 312.315 194.4C311.301 194.4 310.341 194.693 309.435 195.28C308.528 195.867 307.541 196.64 306.475 197.6L300.075 228H288.555L297.035 188H308.555ZM360.953 188L355.113 215.2C354.899 216.107 354.793 216.96 354.793 217.76C354.793 218.88 355.059 219.653 355.593 220.08C356.126 220.507 356.953 220.72 358.073 220.72C359.619 220.72 360.926 220.053 361.993 218.72C363.113 217.387 363.966 215.707 364.553 213.68H367.913C366.793 216.933 365.513 219.52 364.073 221.44C362.686 223.307 361.246 224.747 359.753 225.76C358.313 226.72 356.899 227.333 355.513 227.6C354.126 227.867 352.899 228 351.833 228C349.646 228 347.859 227.413 346.473 226.24C345.139 225.067 344.313 223.333 343.993 221.04C343.406 221.947 342.713 222.853 341.913 223.76C341.113 224.667 340.206 225.467 339.193 226.16C338.233 226.853 337.166 227.413 335.993 227.84C334.819 228.267 333.513 228.48 332.073 228.48C330.686 228.48 329.353 228.267 328.073 227.84C326.846 227.36 325.726 226.613 324.713 225.6C323.699 224.587 322.899 223.28 322.313 221.68C321.726 220.027 321.433 218 321.433 215.6C321.433 213.787 321.619 211.84 321.993 209.76C322.366 207.68 322.926 205.6 323.673 203.52C324.419 201.44 325.353 199.44 326.473 197.52C327.593 195.6 328.926 193.92 330.473 192.48C332.019 190.987 333.726 189.813 335.593 188.96C337.513 188.053 339.646 187.6 341.993 187.6C342.633 187.6 343.299 187.653 343.993 187.76C344.739 187.813 345.406 188 345.993 188.32C346.633 188.587 347.166 189.013 347.593 189.6C348.073 190.133 348.393 190.853 348.553 191.76L349.353 188H360.953ZM344.473 192.56C342.766 192.56 341.219 193.36 339.833 194.96C338.446 196.507 337.273 198.427 336.313 200.72C335.353 202.96 334.606 205.36 334.073 207.92C333.539 210.427 333.273 212.613 333.273 214.48C333.273 216.027 333.406 217.227 333.673 218.08C333.993 218.88 334.339 219.493 334.713 219.92C335.139 220.293 335.566 220.533 335.993 220.64C336.473 220.693 336.899 220.72 337.273 220.72C337.859 220.72 338.473 220.587 339.113 220.32C339.806 220 340.473 219.547 341.113 218.96C341.753 218.373 342.313 217.653 342.793 216.8C343.273 215.893 343.646 214.853 343.913 213.68L347.753 195.6C347.753 195.387 347.673 195.12 347.513 194.8C347.406 194.427 347.219 194.08 346.953 193.76C346.739 193.44 346.419 193.173 345.993 192.96C345.619 192.693 345.113 192.56 344.473 192.56ZM388.422 199.04C388.422 196.32 387.462 194.96 385.542 194.96C384.102 194.96 382.849 195.68 381.782 197.12C380.715 198.56 379.889 200.293 379.302 202.32L373.862 228H362.342L370.822 188H382.342L381.462 192.16C383.169 190.24 384.849 189.013 386.502 188.48C388.155 187.947 389.595 187.68 390.822 187.68C393.382 187.68 395.489 188.4 397.142 189.84C398.849 191.227 399.702 193.52 399.702 196.72C399.702 198.32 399.489 200.107 399.062 202.08C398.689 204 398.262 205.92 397.782 207.84C397.302 209.707 396.849 211.493 396.422 213.2C396.049 214.853 395.862 216.24 395.862 217.36C395.862 218.373 396.075 219.2 396.502 219.84C396.982 220.427 397.835 220.72 399.062 220.72C399.915 220.72 400.662 220.56 401.302 220.24C401.995 219.867 402.582 219.387 403.062 218.8C403.595 218.16 404.075 217.413 404.502 216.56C404.929 215.707 405.355 214.747 405.782 213.68H409.142C408.022 216.987 406.822 219.627 405.542 221.6C404.262 223.52 402.955 224.987 401.622 226C400.289 227.013 398.982 227.68 397.702 228C396.475 228.32 395.329 228.48 394.262 228.48C392.502 228.48 391.009 228.24 389.782 227.76C388.609 227.227 387.649 226.533 386.902 225.68C386.155 224.827 385.622 223.867 385.302 222.8C384.982 221.68 384.822 220.56 384.822 219.44C384.822 218.107 385.009 216.533 385.382 214.72C385.755 212.853 386.155 210.987 386.582 209.12C387.062 207.253 387.489 205.44 387.862 203.68C388.235 201.867 388.422 200.32 388.422 199.04ZM426.253 175.36L423.533 188H428.333L427.693 191.2H422.893L417.773 215.2C417.559 216.107 417.453 216.96 417.453 217.76C417.453 218.88 417.719 219.653 418.253 220.08C418.786 220.507 419.613 220.72 420.733 220.72C422.279 220.72 423.719 220.053 425.053 218.72C426.386 217.387 427.346 215.707 427.933 213.68H431.293C430.173 216.933 428.866 219.547 427.373 221.52C425.879 223.44 424.359 224.933 422.813 226C421.266 227.013 419.746 227.68 418.253 228C416.813 228.32 415.559 228.48 414.493 228.48C412.093 228.48 410.066 227.733 408.413 226.24C406.759 224.693 405.933 222.24 405.933 218.88C405.933 217.44 406.146 215.707 406.573 213.68L411.373 191.2H408.733L409.373 188H412.013L414.413 176.96L426.253 175.36ZM452.061 185.52C452.274 190.693 452.488 194.88 452.701 198.08C452.914 201.28 453.101 203.893 453.261 205.92C453.421 207.893 453.554 209.52 453.661 210.8C453.768 212.027 453.821 213.307 453.821 214.64C453.821 217.253 453.288 219.44 452.221 221.2C451.208 222.96 449.901 224.4 448.301 225.52C446.701 226.587 444.968 227.36 443.101 227.84C441.234 228.267 439.474 228.48 437.821 228.48C435.794 228.48 434.034 228.187 432.541 227.6C431.101 226.96 429.901 226.16 428.941 225.2C427.981 224.24 427.288 223.147 426.861 221.92C426.381 220.693 426.141 219.467 426.141 218.24C426.141 216.373 426.568 214.8 427.421 213.52C428.274 212.24 429.261 211.333 430.381 210.8C432.621 206.8 434.514 202.853 436.061 198.96C437.608 195.013 438.994 191.067 440.221 187.12L452.061 185.52ZM436.061 213.68C436.061 214.64 435.741 215.547 435.101 216.4C434.461 217.2 433.608 217.6 432.541 217.6C432.114 217.6 431.688 217.547 431.261 217.44C430.888 217.28 430.594 216.987 430.381 216.56C430.381 218.427 430.754 219.84 431.501 220.8C432.248 221.707 433.501 222.16 435.261 222.16C436.114 222.16 436.968 222.053 437.821 221.84C438.674 221.573 439.421 221.147 440.061 220.56C440.701 219.973 441.208 219.2 441.581 218.24C442.008 217.28 442.221 216.107 442.221 214.72C442.221 213.707 442.168 212.72 442.061 211.76C442.008 210.8 441.901 209.653 441.741 208.32C441.634 206.987 441.474 205.333 441.261 203.36C441.101 201.387 440.914 198.853 440.701 195.76C439.901 198.373 438.941 200.907 437.821 203.36C436.754 205.813 435.554 208.32 434.221 210.88C434.754 211.147 435.181 211.52 435.501 212C435.874 212.427 436.061 212.987 436.061 213.68Z" fill="#FF7622"/>
</svg>
