<svg width="22" height="22" viewBox="0 0 22 22" fill="none" xmlns="http://www.w3.org/2000/svg">
<g clip-path="url(#clip0_403_3747)">
<path d="M21.9999 20.7064L16.2709 14.9774C19.4743 11.0595 18.8952 5.28654 14.9773 2.08309C11.0594 -1.12036 5.28643 -0.541184 2.08298 3.37675C-1.12046 7.29468 -0.541287 13.0676 3.3766 16.2711C6.75127 19.0304 11.6026 19.0304 14.9772 16.2711L20.7063 22L21.9999 20.7064ZM9.1916 16.5107C5.1494 16.5107 1.87257 13.2339 1.87257 9.19171C1.87257 5.14951 5.1494 1.87267 9.1916 1.87267C13.2338 1.87267 16.5106 5.14951 16.5106 9.19171C16.5061 13.232 13.2319 16.5062 9.1916 16.5107Z" fill="#3E3F44"/>
</g>
<defs>
<clipPath id="clip0_403_3747">
<rect width="22" height="22" fill="white"/>
</clipPath>
</defs>
</svg>
